<svg width="20" height="20" viewBox="0 0 20 20" fill="none" xmlns="http://www.w3.org/2000/svg">
<g clip-path="url(#clip0_195_294)">
<path d="M14.1056 14.1389C13.9824 14.059 13.8327 14.0311 13.689 14.0613C13.5454 14.0915 13.4195 14.1773 13.3389 14.3C12.5556 15.5 11.1167 16.9722 9.83335 17.4667C8.55002 17.9611 7.54446 17.7833 7.14446 17.4667C6.97224 17.3167 6.52224 16.9111 6.90557 15.5278C7.16113 14.6056 8.75002 10.2611 9.12779 9.20557L7.91668 9.36112C7.53335 10.3945 6.0889 14.2722 5.82779 15.2389C5.45001 16.6222 5.6389 17.6278 6.43335 18.3278C6.98862 18.7169 7.65579 18.9139 8.33335 18.8889C8.99089 18.8798 9.64093 18.7479 10.25 18.5C11.8 17.8945 13.4278 16.2111 14.2833 14.9056C14.3221 14.8436 14.3483 14.7746 14.3604 14.7025C14.3724 14.6303 14.3701 14.5566 14.3536 14.4853C14.3371 14.4141 14.3067 14.3468 14.2641 14.2874C14.2216 14.2279 14.1677 14.1775 14.1056 14.1389Z" fill="black"/>
<path d="M10.7222 6.11112C11.2167 6.11112 11.7 5.96449 12.1112 5.68979C12.5223 5.41509 12.8427 5.02464 13.0319 4.56782C13.2211 4.11101 13.2707 3.60834 13.1742 3.12339C13.0777 2.63844 12.8396 2.19298 12.49 1.84335C12.1404 1.49372 11.6949 1.25562 11.21 1.15915C10.725 1.06269 10.2223 1.1122 9.76552 1.30142C9.30871 1.49064 8.91826 1.81107 8.64355 2.22219C8.36885 2.63331 8.22223 3.11666 8.22223 3.61112C8.22223 4.27416 8.48562 4.91004 8.95446 5.37888C9.4233 5.84772 10.0592 6.11112 10.7222 6.11112ZM10.7222 2.22223C10.9969 2.22223 11.2655 2.30368 11.4939 2.4563C11.7223 2.60891 11.9003 2.82582 12.0054 3.07961C12.1105 3.3334 12.138 3.61266 12.0844 3.88207C12.0308 4.15149 11.8986 4.39897 11.7043 4.59321C11.5101 4.78745 11.2626 4.91973 10.9932 4.97332C10.7238 5.02691 10.4445 4.9994 10.1907 4.89428C9.93694 4.78916 9.72002 4.61114 9.56741 4.38274C9.4148 4.15434 9.33334 3.88581 9.33334 3.61112C9.33334 3.24276 9.47967 2.88949 9.74014 2.62902C10.0006 2.36856 10.3539 2.22223 10.7222 2.22223Z" fill="black"/>
<path d="M6.5611 8.33333C6.59444 8.33333 10.0444 7.87778 10.8555 7.77778C11.2167 7.72222 11.4889 7.77778 11.5778 7.86111C11.6667 7.94444 11.6944 8.30556 11.5389 8.79444C11.2 9.82778 9.48888 14.9056 8.98888 16.4111C9.23327 16.361 9.47301 16.2904 9.70555 16.2C9.92798 16.1081 10.1418 15.9965 10.3444 15.8667C11.0278 13.8889 12.3055 10.0556 12.5944 9.17778C12.8833 8.3 12.8111 7.63333 12.4278 7.17778C12.2091 6.95606 11.9354 6.7965 11.6347 6.71547C11.334 6.63444 11.0171 6.63485 10.7167 6.71667C9.92222 6.8 6.56666 7.23889 6.42221 7.27222C6.27487 7.29138 6.14117 7.36828 6.05053 7.48601C5.95989 7.60374 5.91973 7.75266 5.93888 7.9C5.95804 8.04734 6.03494 8.18104 6.15267 8.27168C6.2704 8.36233 6.41932 8.40249 6.56666 8.38333L6.5611 8.33333Z" fill="black"/>
</g>
<defs>
<clipPath id="clip0_195_294">
<rect width="20" height="20" fill="white"/>
</clipPath>
</defs>
</svg>
