<svg width="1920" height="320" viewBox="0 0 1920 320" fill="none" xmlns="http://www.w3.org/2000/svg">
<g clip-path="url(#clip0_114_431)">
<path d="M-17.3333 181L46.6667 159.7C110.667 138 238.667 96 366.667 101C494.667 106 622.667 160 750.667 154.3C878.667 149 1006.67 85 1134.67 85C1262.67 85 1390.67 149 1518.67 159.7C1646.67 170 1774.67 128 1838.67 106.3L1902.67 85V-11H1838.67C1774.67 -11 1646.67 -11 1518.67 -11C1390.67 -11 1262.67 -11 1134.67 -11C1006.67 -11 878.667 -11 750.667 -11C622.667 -11 494.667 -11 366.667 -11C238.667 -11 110.667 -11 46.6667 -11H-17.3333V181Z" fill="white"/>
</g>
<defs>
<clipPath id="clip0_114_431">
<rect width="1920" height="320" fill="white" transform="matrix(1 0 0 -1 0 320)"/>
</clipPath>
</defs>
</svg>
