<svg width="1920" height="348" viewBox="0 0 1920 348" fill="none" xmlns="http://www.w3.org/2000/svg">
<path d="M0 117.961L53.3333 111.004C106.667 103.521 213.333 90.3938 320 90C426.667 90.3938 533.333 103.521 640 124.919C746.667 145.529 853.333 174.409 960 174.015C1066.67 174.409 1173.33 145.529 1280 138.965C1386.67 132.402 1493.33 145.529 1600 174.015C1706.67 201.977 1813.33 243.985 1866.67 264.988L1920 285.992V328H1866.67C1813.33 328 1706.67 328 1600 328C1493.33 328 1386.67 328 1280 328C1173.33 328 1066.67 328 960 328C853.333 328 746.667 328 640 328C533.333 328 426.667 328 320 328C213.333 328 106.667 328 53.3333 328H0V117.961Z" fill="white"/>
</svg>
