<svg width="1440" height="348" viewBox="0 0 1440 348" fill="none" xmlns="http://www.w3.org/2000/svg">
<path d="M0 117.961L40 111.004C80 103.521 160 90.3938 240 90C320 90.3938 400 103.521 480 124.919C560 145.529 640 174.409 720 174.015C800 174.409 880 145.529 960 138.965C1040 132.402 1120 145.529 1200 174.015C1280 201.977 1360 243.985 1400 264.988L1440 285.992V328H1400C1360 328 1280 328 1200 328C1120 328 1040 328 960 328C880 328 800 328 720 328C640 328 560 328 480 328C400 328 320 328 240 328C160 328 80 328 40 328H0V117.961Z" fill="white"/>
</svg>
